<svg width="72" height="72" viewBox="0 0 72 72" fill="none" xmlns="http://www.w3.org/2000/svg">
<path d="M61.2869 66.0002H6.00022C5.11617 66.0002 4.26832 65.649 3.6432 65.0239C3.01808 64.3988 2.66689 63.5509 2.66689 62.6669V16.0002C2.66689 15.1162 3.01808 14.2683 3.6432 13.6432C4.26832 13.0181 5.11617 12.6669 6.00022 12.6669H7.95355L0.643555 5.36022L5.36022 0.643555L71.3569 66.6436L66.6402 71.3569L61.2869 66.0002ZM14.6202 19.3336H9.33355V59.3336H54.6202L47.3536 52.0669C43.8287 54.8566 39.4018 56.2541 34.9142 55.9938C30.4265 55.7335 26.1909 53.8334 23.0123 50.6549C19.8337 47.4763 17.9337 43.2406 17.6733 38.753C17.413 34.2653 18.8105 29.8384 21.6002 26.3136L14.6202 19.3336ZM26.3669 31.0836C24.8302 33.3294 24.1268 36.0417 24.3786 38.7513C24.6304 41.4609 25.8215 43.9972 27.7457 45.9214C29.6699 47.8457 32.2062 49.0367 34.9158 49.2885C37.6254 49.5403 40.3377 48.837 42.5836 47.3002L26.3669 31.0836ZM69.3336 55.2836L62.6669 48.6169V19.3336H49.9069L43.2402 12.6669H28.7602L27.7369 13.6902L23.0236 8.97689L26.0002 6.00022H46.0002L52.6669 12.6669H66.0002C66.8843 12.6669 67.7321 13.0181 68.3573 13.6432C68.9824 14.2683 69.3336 15.1162 69.3336 16.0002V55.2869V55.2836ZM33.5436 19.5002C36.3414 19.1215 39.1889 19.3942 41.8641 20.2968C44.5392 21.1995 46.9698 22.7079 48.9662 24.7043C50.9626 26.7007 52.4709 29.1312 53.3736 31.8064C54.2763 34.4815 54.5489 37.329 54.1702 40.1269L46.3769 32.3336C45.2611 30.1709 43.4995 28.4094 41.3369 27.2936L33.5436 19.5002Z" fill="#D9D9D9"/>
</svg>
