<svg width="335" height="325" viewBox="0 0 335 325" fill="none" xmlns="http://www.w3.org/2000/svg">
<rect width="335" height="325" rx="12" fill="#F6F5F5"/>
<path d="M17.4091 34V22.3636H24.3864V23.6136H18.8182V27.5455H23.8636V28.7955H18.8182V34H17.4091ZM26.6179 34V25.2727H27.9588V34H26.6179ZM27.2997 23.8182C27.0384 23.8182 26.813 23.7292 26.6236 23.5511C26.438 23.3731 26.3452 23.1591 26.3452 22.9091C26.3452 22.6591 26.438 22.4451 26.6236 22.267C26.813 22.089 27.0384 22 27.2997 22C27.5611 22 27.7846 22.089 27.9702 22.267C28.1596 22.4451 28.2543 22.6591 28.2543 22.9091C28.2543 23.1591 28.1596 23.3731 27.9702 23.5511C27.7846 23.7292 27.5611 23.8182 27.2997 23.8182ZM34.0739 34.1818C33.233 34.1818 32.5076 33.9962 31.8977 33.625C31.2917 33.25 30.8239 32.7273 30.4943 32.0568C30.1686 31.3826 30.0057 30.5985 30.0057 29.7045C30.0057 28.8106 30.1686 28.0227 30.4943 27.3409C30.8239 26.6553 31.2822 26.1212 31.8693 25.7386C32.4602 25.3523 33.1496 25.1591 33.9375 25.1591C34.392 25.1591 34.8409 25.2348 35.2841 25.3864C35.7273 25.5379 36.1307 25.7841 36.4943 26.125C36.858 26.4621 37.1477 26.9091 37.3636 27.4659C37.5795 28.0227 37.6875 28.7083 37.6875 29.5227V30.0909H30.9602V28.9318H36.3239C36.3239 28.4394 36.2254 28 36.0284 27.6136C35.8352 27.2273 35.5587 26.9223 35.1989 26.6989C34.8428 26.4754 34.4223 26.3636 33.9375 26.3636C33.4034 26.3636 32.9413 26.4962 32.5511 26.7614C32.1648 27.0227 31.8674 27.3636 31.6591 27.7841C31.4508 28.2045 31.3466 28.6553 31.3466 29.1364V29.9091C31.3466 30.5682 31.4602 31.1269 31.6875 31.5852C31.9186 32.0398 32.2386 32.3864 32.6477 32.625C33.0568 32.8598 33.5322 32.9773 34.0739 32.9773C34.4261 32.9773 34.7443 32.928 35.0284 32.8295C35.3163 32.7273 35.5644 32.5758 35.7727 32.375C35.9811 32.1705 36.142 31.9167 36.2557 31.6136L37.5511 31.9773C37.4148 32.4167 37.1856 32.803 36.8636 33.1364C36.5417 33.4659 36.1439 33.7235 35.6705 33.9091C35.197 34.0909 34.6648 34.1818 34.0739 34.1818ZM41.0682 22.3636V34H39.7273V22.3636H41.0682ZM46.8196 34.1818C46.0923 34.1818 45.4503 33.9981 44.8935 33.6307C44.3366 33.2595 43.901 32.7367 43.5866 32.0625C43.2723 31.3845 43.1151 30.5833 43.1151 29.6591C43.1151 28.7424 43.2723 27.947 43.5866 27.2727C43.901 26.5985 44.3385 26.0777 44.8991 25.7102C45.4598 25.3428 46.1075 25.1591 46.8423 25.1591C47.4105 25.1591 47.8594 25.2538 48.1889 25.4432C48.5223 25.6288 48.776 25.8409 48.9503 26.0795C49.1283 26.3144 49.2666 26.5076 49.3651 26.6591H49.4787V22.3636H50.8196V34H49.5241V32.6591H49.3651C49.2666 32.8182 49.1264 33.0189 48.9446 33.2614C48.7628 33.5 48.5033 33.714 48.1662 33.9034C47.8291 34.089 47.3802 34.1818 46.8196 34.1818ZM47.0014 32.9773C47.5393 32.9773 47.9938 32.8371 48.3651 32.5568C48.7363 32.2727 49.0185 31.8807 49.2116 31.3807C49.4048 30.8769 49.5014 30.2955 49.5014 29.6364C49.5014 28.9848 49.4067 28.4148 49.2173 27.9261C49.0279 27.4337 48.7476 27.0511 48.3764 26.7784C48.0052 26.5019 47.5469 26.3636 47.0014 26.3636C46.4332 26.3636 45.9598 26.5095 45.581 26.8011C45.206 27.089 44.9238 27.4811 44.7344 27.9773C44.5488 28.4697 44.456 29.0227 44.456 29.6364C44.456 30.2576 44.5507 30.822 44.7401 31.3295C44.9332 31.8333 45.2173 32.2348 45.5923 32.5341C45.9711 32.8295 46.4408 32.9773 47.0014 32.9773ZM60.2571 34L57.0753 22.3636H58.5071L60.9389 31.8409H61.0526L63.5298 22.3636H65.1207L67.598 31.8409H67.7116L70.1435 22.3636H71.5753L68.3935 34H66.9389L64.3707 24.7273H64.2798L61.7116 34H60.2571ZM74.9048 34.2045C74.3518 34.2045 73.8499 34.1004 73.3991 33.892C72.9484 33.6799 72.5904 33.375 72.3253 32.9773C72.0601 32.5758 71.9276 32.0909 71.9276 31.5227C71.9276 31.0227 72.026 30.6174 72.223 30.3068C72.42 29.9924 72.6832 29.7462 73.0128 29.5682C73.3423 29.3902 73.706 29.2576 74.1037 29.1705C74.5052 29.0795 74.9086 29.0076 75.3139 28.9545C75.8442 28.8864 76.2741 28.8352 76.6037 28.8011C76.937 28.7633 77.1795 28.7008 77.331 28.6136C77.4863 28.5265 77.5639 28.375 77.5639 28.1591V28.1136C77.5639 27.553 77.4105 27.1174 77.1037 26.8068C76.8007 26.4962 76.3404 26.3409 75.723 26.3409C75.0829 26.3409 74.581 26.4811 74.2173 26.7614C73.8537 27.0417 73.598 27.3409 73.4503 27.6591L72.1776 27.2045C72.4048 26.6742 72.7079 26.2614 73.0866 25.9659C73.4692 25.6667 73.8859 25.4583 74.3366 25.3409C74.7912 25.2197 75.2382 25.1591 75.6776 25.1591C75.9579 25.1591 76.2798 25.1932 76.6435 25.2614C77.0109 25.3258 77.3651 25.4602 77.706 25.6648C78.0507 25.8693 78.3366 26.178 78.5639 26.5909C78.7912 27.0038 78.9048 27.5568 78.9048 28.25V34H77.5639V32.8182H77.4957C77.4048 33.0076 77.2533 33.2102 77.0412 33.4261C76.8291 33.642 76.5469 33.8258 76.1946 33.9773C75.8423 34.1288 75.4124 34.2045 74.9048 34.2045ZM75.1094 33C75.6397 33 76.0866 32.8958 76.4503 32.6875C76.8177 32.4792 77.0942 32.2102 77.2798 31.8807C77.4692 31.5511 77.5639 31.2045 77.5639 30.8409V29.6136C77.5071 29.6818 77.3821 29.7443 77.1889 29.8011C76.9995 29.8542 76.7798 29.9015 76.5298 29.9432C76.2836 29.9811 76.0431 30.0152 75.8082 30.0455C75.5772 30.072 75.3897 30.0947 75.2457 30.1136C74.8973 30.1591 74.5715 30.233 74.2685 30.3352C73.9692 30.4337 73.7268 30.5833 73.5412 30.7841C73.3594 30.9811 73.2685 31.25 73.2685 31.5909C73.2685 32.0568 73.4408 32.4091 73.7855 32.6477C74.134 32.8826 74.5753 33 75.1094 33ZM85.1477 25.2727V26.4091H80.625V25.2727H85.1477ZM81.9432 23.1818H83.2841V31.5C83.2841 31.8788 83.339 32.1629 83.4489 32.3523C83.5625 32.5379 83.7064 32.6629 83.8807 32.7273C84.0587 32.7879 84.2462 32.8182 84.4432 32.8182C84.5909 32.8182 84.7121 32.8106 84.8068 32.7955C84.9015 32.7765 84.9773 32.7614 85.0341 32.75L85.3068 33.9545C85.2159 33.9886 85.089 34.0227 84.9261 34.0568C84.7633 34.0947 84.5568 34.1136 84.3068 34.1136C83.928 34.1136 83.5568 34.0322 83.1932 33.8693C82.8333 33.7064 82.5341 33.4583 82.2955 33.125C82.0606 32.7917 81.9432 32.3712 81.9432 31.8636V23.1818ZM90.7301 34.1818C89.8892 34.1818 89.1638 33.9962 88.554 33.625C87.9479 33.25 87.4801 32.7273 87.1506 32.0568C86.8248 31.3826 86.6619 30.5985 86.6619 29.7045C86.6619 28.8106 86.8248 28.0227 87.1506 27.3409C87.4801 26.6553 87.9384 26.1212 88.5256 25.7386C89.1165 25.3523 89.8059 25.1591 90.5938 25.1591C91.0483 25.1591 91.4972 25.2348 91.9403 25.3864C92.3835 25.5379 92.7869 25.7841 93.1506 26.125C93.5142 26.4621 93.804 26.9091 94.0199 27.4659C94.2358 28.0227 94.3438 28.7083 94.3438 29.5227V30.0909H87.6165V28.9318H92.9801C92.9801 28.4394 92.8816 28 92.6847 27.6136C92.4915 27.2273 92.215 26.9223 91.8551 26.6989C91.4991 26.4754 91.0786 26.3636 90.5938 26.3636C90.0597 26.3636 89.5975 26.4962 89.2074 26.7614C88.821 27.0227 88.5237 27.3636 88.3153 27.7841C88.107 28.2045 88.0028 28.6553 88.0028 29.1364V29.9091C88.0028 30.5682 88.1165 31.1269 88.3438 31.5852C88.5748 32.0398 88.8949 32.3864 89.304 32.625C89.7131 32.8598 90.1884 32.9773 90.7301 32.9773C91.0824 32.9773 91.4006 32.928 91.6847 32.8295C91.9725 32.7273 92.2206 32.5758 92.429 32.375C92.6373 32.1705 92.7983 31.9167 92.9119 31.6136L94.2074 31.9773C94.071 32.4167 93.8419 32.803 93.5199 33.1364C93.1979 33.4659 92.8002 33.7235 92.3267 33.9091C91.8532 34.0909 91.321 34.1818 90.7301 34.1818ZM96.3835 34V25.2727H97.679V26.5909H97.7699C97.929 26.1591 98.2169 25.8087 98.6335 25.5398C99.0502 25.2708 99.5199 25.1364 100.043 25.1364C100.141 25.1364 100.264 25.1383 100.412 25.142C100.56 25.1458 100.671 25.1515 100.747 25.1591V26.5227C100.702 26.5114 100.598 26.4943 100.435 26.4716C100.276 26.4451 100.107 26.4318 99.929 26.4318C99.5047 26.4318 99.1259 26.5208 98.7926 26.6989C98.4631 26.8731 98.2017 27.1155 98.0085 27.4261C97.8191 27.733 97.7244 28.0833 97.7244 28.4773V34H96.3835Z" fill="#111111"/>
<path d="M251.848 155.718C251.848 137.1 245.711 118.969 234.336 103.979C222.96 88.9881 206.943 77.9236 188.625 72.4032C170.308 66.8829 150.651 67.1962 132.53 73.2974C114.409 79.3987 98.7743 90.9677 87.9121 106.313C77.0499 121.658 71.53 139.974 72.1598 158.583C72.7895 177.191 79.5358 195.116 91.4121 209.736C103.288 224.356 119.672 234.904 138.166 239.837C156.661 244.771 176.296 243.831 194.201 237.156L161.979 155.718H251.848Z" fill="#E63535" fill-opacity="0.9" stroke="#F6F5F5"/>
<path d="M251.848 155.718C251.848 143.252 249.095 130.93 243.775 119.583C238.456 108.236 230.693 98.1276 221.009 89.9389C211.325 81.7502 199.946 75.6713 187.638 72.1119C175.33 68.5524 162.38 67.5951 149.658 69.3043C136.937 71.0135 124.741 75.3496 113.892 82.0204C103.042 88.6912 93.7918 97.5419 86.7635 107.976C79.7352 118.41 75.0923 130.185 73.1476 142.508C71.2029 154.831 72.0016 167.415 75.4899 179.413L161.979 155.718H251.848Z" fill="#FDAF3B" fill-opacity="0.9" stroke="#F6F5F5"/>
<path d="M187.76 73.0941C172.223 68.5729 155.721 68.1951 139.997 72.0007C124.274 75.8063 109.913 83.6538 98.4335 94.7139C86.9536 105.774 78.7809 119.636 74.779 134.834C70.7771 150.033 71.0947 166.004 75.6983 181.059L162 156.499L187.76 73.0941Z" fill="#4080FF" fill-opacity="0.9" stroke="#F6F5F5"/>
<path d="M251.848 155.718C251.848 173.338 246.351 190.544 236.083 205.073C225.814 219.601 211.254 230.771 194.319 237.111L161.979 155.718H251.848Z" fill="#37BD6B" fill-opacity="0.9" stroke="#F6F5F5"/>
<path d="M51.9318 92.6136V91.4545L57.0455 83.3636H57.8864V85.1591H57.3182L53.4545 91.2727V91.3636H60.3409V92.6136H51.9318ZM57.4091 95V92.2614V91.7216V83.3636H58.75V95H57.4091ZM66.1065 95.1591C65.4399 95.1591 64.8395 95.0265 64.3054 94.7614C63.7713 94.4962 63.3433 94.1326 63.0213 93.6705C62.6993 93.2083 62.5232 92.6818 62.4929 92.0909H63.8565C63.9096 92.6174 64.1482 93.053 64.5724 93.3977C65.0005 93.7386 65.5118 93.9091 66.1065 93.9091C66.5838 93.9091 67.008 93.7973 67.3793 93.5739C67.7543 93.3504 68.0478 93.0436 68.2599 92.6534C68.4759 92.2595 68.5838 91.8144 68.5838 91.3182C68.5838 90.8106 68.4721 90.358 68.2486 89.9602C68.0289 89.5587 67.7259 89.2424 67.3395 89.0114C66.9531 88.7803 66.5118 88.6629 66.0156 88.6591C65.6596 88.6553 65.294 88.7102 64.919 88.8239C64.544 88.9337 64.2353 89.0758 63.9929 89.25L62.6747 89.0909L63.3793 83.3636H69.4247V84.6136H64.5611L64.152 88.0455H64.2202C64.4588 87.8561 64.758 87.6989 65.1179 87.5739C65.4777 87.4489 65.8527 87.3864 66.2429 87.3864C66.955 87.3864 67.5895 87.5568 68.1463 87.8977C68.7069 88.2348 69.1463 88.697 69.4645 89.2841C69.7865 89.8712 69.9474 90.5417 69.9474 91.2955C69.9474 92.0379 69.7808 92.7008 69.4474 93.2841C69.1179 93.8636 68.6634 94.322 68.0838 94.6591C67.5043 94.9924 66.8452 95.1591 66.1065 95.1591ZM78.1364 92.8182V92.2045C78.1364 91.7803 78.2235 91.392 78.3977 91.0398C78.5758 90.6837 78.8333 90.3996 79.1705 90.1875C79.5114 89.9716 79.9242 89.8636 80.4091 89.8636C80.9015 89.8636 81.3144 89.9716 81.6477 90.1875C81.9811 90.3996 82.233 90.6837 82.4034 91.0398C82.5739 91.392 82.6591 91.7803 82.6591 92.2045V92.8182C82.6591 93.2424 82.572 93.6326 82.3977 93.9886C82.2273 94.3409 81.9735 94.625 81.6364 94.8409C81.303 95.053 80.8939 95.1591 80.4091 95.1591C79.9167 95.1591 79.5019 95.053 79.1648 94.8409C78.8277 94.625 78.572 94.3409 78.3977 93.9886C78.2235 93.6326 78.1364 93.2424 78.1364 92.8182ZM79.2955 92.2045V92.8182C79.2955 93.1705 79.3788 93.4867 79.5455 93.767C79.7121 94.0436 80 94.1818 80.4091 94.1818C80.8068 94.1818 81.0871 94.0436 81.25 93.767C81.4167 93.4867 81.5 93.1705 81.5 92.8182V92.2045C81.5 91.8523 81.4205 91.5379 81.2614 91.2614C81.1023 90.9811 80.8182 90.8409 80.4091 90.8409C80.0114 90.8409 79.7254 90.9811 79.5511 91.2614C79.3807 91.5379 79.2955 91.8523 79.2955 92.2045ZM72.3409 86.1591V85.5455C72.3409 85.1212 72.428 84.733 72.6023 84.3807C72.7803 84.0246 73.0379 83.7405 73.375 83.5284C73.7159 83.3125 74.1288 83.2045 74.6136 83.2045C75.1061 83.2045 75.5189 83.3125 75.8523 83.5284C76.1856 83.7405 76.4375 84.0246 76.608 84.3807C76.7784 84.733 76.8636 85.1212 76.8636 85.5455V86.1591C76.8636 86.5833 76.7765 86.9735 76.6023 87.3295C76.4318 87.6818 76.178 87.9659 75.8409 88.1818C75.5076 88.3939 75.0985 88.5 74.6136 88.5C74.1212 88.5 73.7064 88.3939 73.3693 88.1818C73.0322 87.9659 72.7765 87.6818 72.6023 87.3295C72.428 86.9735 72.3409 86.5833 72.3409 86.1591ZM73.5 85.5455V86.1591C73.5 86.5114 73.5833 86.8277 73.75 87.108C73.9167 87.3845 74.2045 87.5227 74.6136 87.5227C75.0114 87.5227 75.2917 87.3845 75.4545 87.108C75.6212 86.8277 75.7045 86.5114 75.7045 86.1591V85.5455C75.7045 85.1932 75.625 84.8788 75.4659 84.6023C75.3068 84.322 75.0227 84.1818 74.6136 84.1818C74.2159 84.1818 73.9299 84.322 73.7557 84.6023C73.5852 84.8788 73.5 85.1932 73.5 85.5455ZM72.7727 95L80.7727 83.3636H82.0682L74.0682 95H72.7727Z" fill="#111111"/>
<path d="M248.295 83.3636V95H246.886V84.8409H246.818L243.977 86.7273V85.2955L246.886 83.3636H248.295ZM255.278 95.1591C254.612 95.1591 254.011 95.0265 253.477 94.7614C252.943 94.4962 252.515 94.1326 252.193 93.6705C251.871 93.2083 251.695 92.6818 251.665 92.0909H253.028C253.081 92.6174 253.32 93.053 253.744 93.3977C254.172 93.7386 254.684 93.9091 255.278 93.9091C255.756 93.9091 256.18 93.7973 256.551 93.5739C256.926 93.3504 257.22 93.0436 257.432 92.6534C257.648 92.2595 257.756 91.8144 257.756 91.3182C257.756 90.8106 257.644 90.358 257.42 89.9602C257.201 89.5587 256.898 89.2424 256.511 89.0114C256.125 88.7803 255.684 88.6629 255.188 88.6591C254.831 88.6553 254.466 88.7102 254.091 88.8239C253.716 88.9337 253.407 89.0758 253.165 89.25L251.847 89.0909L252.551 83.3636H258.597V84.6136H253.733L253.324 88.0455H253.392C253.631 87.8561 253.93 87.6989 254.29 87.5739C254.65 87.4489 255.025 87.3864 255.415 87.3864C256.127 87.3864 256.761 87.5568 257.318 87.8977C257.879 88.2348 258.318 88.697 258.636 89.2841C258.958 89.8712 259.119 90.5417 259.119 91.2955C259.119 92.0379 258.953 92.7008 258.619 93.2841C258.29 93.8636 257.835 94.322 257.256 94.6591C256.676 94.9924 256.017 95.1591 255.278 95.1591ZM267.308 92.8182V92.2045C267.308 91.7803 267.395 91.392 267.57 91.0398C267.748 90.6837 268.005 90.3996 268.342 90.1875C268.683 89.9716 269.096 89.8636 269.581 89.8636C270.073 89.8636 270.486 89.9716 270.82 90.1875C271.153 90.3996 271.405 90.6837 271.575 91.0398C271.746 91.392 271.831 91.7803 271.831 92.2045V92.8182C271.831 93.2424 271.744 93.6326 271.57 93.9886C271.399 94.3409 271.145 94.625 270.808 94.8409C270.475 95.053 270.066 95.1591 269.581 95.1591C269.089 95.1591 268.674 95.053 268.337 94.8409C268 94.625 267.744 94.3409 267.57 93.9886C267.395 93.6326 267.308 93.2424 267.308 92.8182ZM268.467 92.2045V92.8182C268.467 93.1705 268.551 93.4867 268.717 93.767C268.884 94.0436 269.172 94.1818 269.581 94.1818C269.979 94.1818 270.259 94.0436 270.422 93.767C270.589 93.4867 270.672 93.1705 270.672 92.8182V92.2045C270.672 91.8523 270.592 91.5379 270.433 91.2614C270.274 90.9811 269.99 90.8409 269.581 90.8409C269.183 90.8409 268.897 90.9811 268.723 91.2614C268.553 91.5379 268.467 91.8523 268.467 92.2045ZM261.513 86.1591V85.5455C261.513 85.1212 261.6 84.733 261.774 84.3807C261.952 84.0246 262.21 83.7405 262.547 83.5284C262.888 83.3125 263.301 83.2045 263.786 83.2045C264.278 83.2045 264.691 83.3125 265.024 83.5284C265.357 83.7405 265.609 84.0246 265.78 84.3807C265.95 84.733 266.036 85.1212 266.036 85.5455V86.1591C266.036 86.5833 265.948 86.9735 265.774 87.3295C265.604 87.6818 265.35 87.9659 265.013 88.1818C264.679 88.3939 264.27 88.5 263.786 88.5C263.293 88.5 262.878 88.3939 262.541 88.1818C262.204 87.9659 261.948 87.6818 261.774 87.3295C261.6 86.9735 261.513 86.5833 261.513 86.1591ZM262.672 85.5455V86.1591C262.672 86.5114 262.755 86.8277 262.922 87.108C263.089 87.3845 263.376 87.5227 263.786 87.5227C264.183 87.5227 264.464 87.3845 264.626 87.108C264.793 86.8277 264.876 86.5114 264.876 86.1591V85.5455C264.876 85.1932 264.797 84.8788 264.638 84.6023C264.479 84.322 264.195 84.1818 263.786 84.1818C263.388 84.1818 263.102 84.322 262.928 84.6023C262.757 84.8788 262.672 85.1932 262.672 85.5455ZM261.945 95L269.945 83.3636H271.24L263.24 95H261.945Z" fill="#111111"/>
<path d="M248.295 220.364V232H246.886V221.841H246.818L243.977 223.727V222.295L246.886 220.364H248.295ZM255.278 232.159C254.612 232.159 254.011 232.027 253.477 231.761C252.943 231.496 252.515 231.133 252.193 230.67C251.871 230.208 251.695 229.682 251.665 229.091H253.028C253.081 229.617 253.32 230.053 253.744 230.398C254.172 230.739 254.684 230.909 255.278 230.909C255.756 230.909 256.18 230.797 256.551 230.574C256.926 230.35 257.22 230.044 257.432 229.653C257.648 229.259 257.756 228.814 257.756 228.318C257.756 227.811 257.644 227.358 257.42 226.96C257.201 226.559 256.898 226.242 256.511 226.011C256.125 225.78 255.684 225.663 255.188 225.659C254.831 225.655 254.466 225.71 254.091 225.824C253.716 225.934 253.407 226.076 253.165 226.25L251.847 226.091L252.551 220.364H258.597V221.614H253.733L253.324 225.045H253.392C253.631 224.856 253.93 224.699 254.29 224.574C254.65 224.449 255.025 224.386 255.415 224.386C256.127 224.386 256.761 224.557 257.318 224.898C257.879 225.235 258.318 225.697 258.636 226.284C258.958 226.871 259.119 227.542 259.119 228.295C259.119 229.038 258.953 229.701 258.619 230.284C258.29 230.864 257.835 231.322 257.256 231.659C256.676 231.992 256.017 232.159 255.278 232.159ZM267.308 229.818V229.205C267.308 228.78 267.395 228.392 267.57 228.04C267.748 227.684 268.005 227.4 268.342 227.188C268.683 226.972 269.096 226.864 269.581 226.864C270.073 226.864 270.486 226.972 270.82 227.188C271.153 227.4 271.405 227.684 271.575 228.04C271.746 228.392 271.831 228.78 271.831 229.205V229.818C271.831 230.242 271.744 230.633 271.57 230.989C271.399 231.341 271.145 231.625 270.808 231.841C270.475 232.053 270.066 232.159 269.581 232.159C269.089 232.159 268.674 232.053 268.337 231.841C268 231.625 267.744 231.341 267.57 230.989C267.395 230.633 267.308 230.242 267.308 229.818ZM268.467 229.205V229.818C268.467 230.17 268.551 230.487 268.717 230.767C268.884 231.044 269.172 231.182 269.581 231.182C269.979 231.182 270.259 231.044 270.422 230.767C270.589 230.487 270.672 230.17 270.672 229.818V229.205C270.672 228.852 270.592 228.538 270.433 228.261C270.274 227.981 269.99 227.841 269.581 227.841C269.183 227.841 268.897 227.981 268.723 228.261C268.553 228.538 268.467 228.852 268.467 229.205ZM261.513 223.159V222.545C261.513 222.121 261.6 221.733 261.774 221.381C261.952 221.025 262.21 220.741 262.547 220.528C262.888 220.312 263.301 220.205 263.786 220.205C264.278 220.205 264.691 220.312 265.024 220.528C265.357 220.741 265.609 221.025 265.78 221.381C265.95 221.733 266.036 222.121 266.036 222.545V223.159C266.036 223.583 265.948 223.973 265.774 224.33C265.604 224.682 265.35 224.966 265.013 225.182C264.679 225.394 264.27 225.5 263.786 225.5C263.293 225.5 262.878 225.394 262.541 225.182C262.204 224.966 261.948 224.682 261.774 224.33C261.6 223.973 261.513 223.583 261.513 223.159ZM262.672 222.545V223.159C262.672 223.511 262.755 223.828 262.922 224.108C263.089 224.384 263.376 224.523 263.786 224.523C264.183 224.523 264.464 224.384 264.626 224.108C264.793 223.828 264.876 223.511 264.876 223.159V222.545C264.876 222.193 264.797 221.879 264.638 221.602C264.479 221.322 264.195 221.182 263.786 221.182C263.388 221.182 263.102 221.322 262.928 221.602C262.757 221.879 262.672 222.193 262.672 222.545ZM261.945 232L269.945 220.364H271.24L263.24 232H261.945Z" fill="#111111"/>
<path d="M52.2045 232V230.977L56.0455 226.773C56.4962 226.28 56.8674 225.852 57.1591 225.489C57.4508 225.121 57.6667 224.777 57.8068 224.455C57.9508 224.129 58.0227 223.788 58.0227 223.432C58.0227 223.023 57.9242 222.669 57.7273 222.369C57.5341 222.07 57.2689 221.839 56.9318 221.676C56.5947 221.513 56.2159 221.432 55.7955 221.432C55.3485 221.432 54.9583 221.525 54.625 221.71C54.2955 221.892 54.0398 222.148 53.858 222.477C53.6799 222.807 53.5909 223.193 53.5909 223.636H52.25C52.25 222.955 52.4072 222.356 52.7216 221.841C53.036 221.326 53.464 220.924 54.0057 220.636C54.5511 220.348 55.1629 220.205 55.8409 220.205C56.5227 220.205 57.1269 220.348 57.6534 220.636C58.1799 220.924 58.5928 221.312 58.892 221.801C59.1913 222.29 59.3409 222.833 59.3409 223.432C59.3409 223.86 59.2633 224.278 59.108 224.688C58.9564 225.093 58.6913 225.545 58.3125 226.045C57.9375 226.542 57.4167 227.148 56.75 227.864L54.1364 230.659V230.75H59.5455V232H52.2045ZM65.5284 232.159C64.8617 232.159 64.2614 232.027 63.7273 231.761C63.1932 231.496 62.7652 231.133 62.4432 230.67C62.1212 230.208 61.9451 229.682 61.9148 229.091H63.2784C63.3314 229.617 63.5701 230.053 63.9943 230.398C64.4223 230.739 64.9337 230.909 65.5284 230.909C66.0057 230.909 66.4299 230.797 66.8011 230.574C67.1761 230.35 67.4697 230.044 67.6818 229.653C67.8977 229.259 68.0057 228.814 68.0057 228.318C68.0057 227.811 67.8939 227.358 67.6705 226.96C67.4508 226.559 67.1477 226.242 66.7614 226.011C66.375 225.78 65.9337 225.663 65.4375 225.659C65.0814 225.655 64.7159 225.71 64.3409 225.824C63.9659 225.934 63.6572 226.076 63.4148 226.25L62.0966 226.091L62.8011 220.364H68.8466V221.614H63.983L63.5739 225.045H63.642C63.8807 224.856 64.1799 224.699 64.5398 224.574C64.8996 224.449 65.2746 224.386 65.6648 224.386C66.3769 224.386 67.0114 224.557 67.5682 224.898C68.1288 225.235 68.5682 225.697 68.8864 226.284C69.2083 226.871 69.3693 227.542 69.3693 228.295C69.3693 229.038 69.2027 229.701 68.8693 230.284C68.5398 230.864 68.0852 231.322 67.5057 231.659C66.9261 231.992 66.267 232.159 65.5284 232.159ZM77.5582 229.818V229.205C77.5582 228.78 77.6454 228.392 77.8196 228.04C77.9976 227.684 78.2552 227.4 78.5923 227.188C78.9332 226.972 79.3461 226.864 79.831 226.864C80.3234 226.864 80.7363 226.972 81.0696 227.188C81.4029 227.4 81.6548 227.684 81.8253 228.04C81.9957 228.392 82.081 228.78 82.081 229.205V229.818C82.081 230.242 81.9938 230.633 81.8196 230.989C81.6491 231.341 81.3954 231.625 81.0582 231.841C80.7249 232.053 80.3158 232.159 79.831 232.159C79.3385 232.159 78.9238 232.053 78.5866 231.841C78.2495 231.625 77.9938 231.341 77.8196 230.989C77.6454 230.633 77.5582 230.242 77.5582 229.818ZM78.7173 229.205V229.818C78.7173 230.17 78.8007 230.487 78.9673 230.767C79.134 231.044 79.4219 231.182 79.831 231.182C80.2287 231.182 80.509 231.044 80.6719 230.767C80.8385 230.487 80.9219 230.17 80.9219 229.818V229.205C80.9219 228.852 80.8423 228.538 80.6832 228.261C80.5241 227.981 80.2401 227.841 79.831 227.841C79.4332 227.841 79.1473 227.981 78.973 228.261C78.8026 228.538 78.7173 228.852 78.7173 229.205ZM71.7628 223.159V222.545C71.7628 222.121 71.8499 221.733 72.0241 221.381C72.2022 221.025 72.4598 220.741 72.7969 220.528C73.1378 220.312 73.5507 220.205 74.0355 220.205C74.5279 220.205 74.9408 220.312 75.2741 220.528C75.6075 220.741 75.8594 221.025 76.0298 221.381C76.2003 221.733 76.2855 222.121 76.2855 222.545V223.159C76.2855 223.583 76.1984 223.973 76.0241 224.33C75.8537 224.682 75.5999 224.966 75.2628 225.182C74.9295 225.394 74.5204 225.5 74.0355 225.5C73.5431 225.5 73.1283 225.394 72.7912 225.182C72.4541 224.966 72.1984 224.682 72.0241 224.33C71.8499 223.973 71.7628 223.583 71.7628 223.159ZM72.9219 222.545V223.159C72.9219 223.511 73.0052 223.828 73.1719 224.108C73.3385 224.384 73.6264 224.523 74.0355 224.523C74.4332 224.523 74.7135 224.384 74.8764 224.108C75.0431 223.828 75.1264 223.511 75.1264 223.159V222.545C75.1264 222.193 75.0469 221.879 74.8878 221.602C74.7287 221.322 74.4446 221.182 74.0355 221.182C73.6378 221.182 73.3518 221.322 73.1776 221.602C73.0071 221.879 72.9219 222.193 72.9219 222.545ZM72.1946 232L80.1946 220.364H81.4901L73.4901 232H72.1946Z" fill="#111111"/>
<circle cx="204" cy="277" r="4" fill="#FDAF3B"/>
<path d="M223.977 272.273V281H222.955L218.199 274.148H218.114V281H217.057V272.273H218.08L222.852 279.142H222.938V272.273H223.977ZM229.041 271.864L226.228 282.312H225.308L228.12 271.864H229.041ZM230.727 281H229.619L232.824 272.273H233.915L237.119 281H236.011L233.403 273.653H233.335L230.727 281ZM231.136 277.591H235.602V278.528H231.136V277.591Z" fill="#111111"/>
<circle cx="42" cy="277" r="4" fill="#37BD6B"/>
<path d="M62.4205 276.636C62.4205 277.557 62.2543 278.352 61.9219 279.023C61.5895 279.693 61.1335 280.21 60.554 280.574C59.9744 280.938 59.3125 281.119 58.5682 281.119C57.8239 281.119 57.1619 280.938 56.5824 280.574C56.0028 280.21 55.5469 279.693 55.2145 279.023C54.8821 278.352 54.7159 277.557 54.7159 276.636C54.7159 275.716 54.8821 274.92 55.2145 274.25C55.5469 273.58 56.0028 273.062 56.5824 272.699C57.1619 272.335 57.8239 272.153 58.5682 272.153C59.3125 272.153 59.9744 272.335 60.554 272.699C61.1335 273.062 61.5895 273.58 61.9219 274.25C62.2543 274.92 62.4205 275.716 62.4205 276.636ZM61.3977 276.636C61.3977 275.881 61.2713 275.243 61.0185 274.723C60.7685 274.203 60.429 273.81 60 273.543C59.5739 273.276 59.0966 273.142 58.5682 273.142C58.0398 273.142 57.5611 273.276 57.1321 273.543C56.706 273.81 56.3665 274.203 56.1136 274.723C55.8636 275.243 55.7386 275.881 55.7386 276.636C55.7386 277.392 55.8636 278.03 56.1136 278.55C56.3665 279.07 56.706 279.463 57.1321 279.73C57.5611 279.997 58.0398 280.131 58.5682 280.131C59.0966 280.131 59.5739 279.997 60 279.73C60.429 279.463 60.7685 279.07 61.0185 278.55C61.2713 278.03 61.3977 277.392 61.3977 276.636ZM64.0611 283.455V274.455H65.0327V275.494H65.152C65.2259 275.381 65.3281 275.236 65.4588 275.06C65.5923 274.881 65.7827 274.722 66.0298 274.582C66.2798 274.44 66.6179 274.369 67.044 274.369C67.5952 274.369 68.081 274.507 68.5014 274.783C68.9219 275.058 69.25 275.449 69.4858 275.955C69.7216 276.46 69.8395 277.057 69.8395 277.744C69.8395 278.438 69.7216 279.038 69.4858 279.547C69.25 280.053 68.9233 280.445 68.5057 280.723C68.0881 280.999 67.6065 281.136 67.0611 281.136C66.6406 281.136 66.304 281.067 66.0511 280.928C65.7983 280.786 65.6037 280.625 65.4673 280.446C65.331 280.264 65.2259 280.114 65.152 279.994H65.0668V283.455H64.0611ZM65.0497 277.727C65.0497 278.222 65.1222 278.658 65.267 279.036C65.4119 279.411 65.6236 279.705 65.902 279.918C66.1804 280.128 66.5213 280.233 66.9247 280.233C67.3452 280.233 67.696 280.122 67.9773 279.901C68.2614 279.676 68.4744 279.375 68.6165 278.997C68.7614 278.616 68.8338 278.193 68.8338 277.727C68.8338 277.267 68.7628 276.852 68.6207 276.483C68.4815 276.111 68.2699 275.817 67.9858 275.601C67.7045 275.382 67.3509 275.273 66.9247 275.273C66.5156 275.273 66.1719 275.376 65.8935 275.584C65.6151 275.788 65.4048 276.075 65.2628 276.445C65.1207 276.811 65.0497 277.239 65.0497 277.727ZM74.2202 274.455V275.307H70.8281V274.455H74.2202ZM71.8168 272.886H72.8224V279.125C72.8224 279.409 72.8636 279.622 72.946 279.764C73.0313 279.903 73.1392 279.997 73.2699 280.045C73.4034 280.091 73.544 280.114 73.6918 280.114C73.8026 280.114 73.8935 280.108 73.9645 280.097C74.0355 280.082 74.0923 280.071 74.1349 280.062L74.3395 280.966C74.2713 280.991 74.1761 281.017 74.054 281.043C73.9318 281.071 73.777 281.085 73.5895 281.085C73.3054 281.085 73.027 281.024 72.7543 280.902C72.4844 280.78 72.2599 280.594 72.081 280.344C71.9048 280.094 71.8168 279.778 71.8168 279.398V272.886ZM75.733 281V274.455H76.7386V281H75.733ZM76.2443 273.364C76.0483 273.364 75.8793 273.297 75.7372 273.163C75.598 273.03 75.5284 272.869 75.5284 272.682C75.5284 272.494 75.598 272.334 75.7372 272.2C75.8793 272.067 76.0483 272 76.2443 272C76.4403 272 76.608 272.067 76.7472 272.2C76.8892 272.334 76.9602 272.494 76.9602 272.682C76.9602 272.869 76.8892 273.03 76.7472 273.163C76.608 273.297 76.4403 273.364 76.2443 273.364ZM78.5806 281V274.455H79.5522V275.477H79.6374C79.7738 275.128 79.994 274.857 80.2979 274.663C80.6019 274.467 80.967 274.369 81.3931 274.369C81.8249 274.369 82.1843 274.467 82.4712 274.663C82.761 274.857 82.9869 275.128 83.1488 275.477H83.217C83.3846 275.139 83.636 274.871 83.9712 274.672C84.3065 274.47 84.7085 274.369 85.1772 274.369C85.7624 274.369 86.2411 274.553 86.6133 274.919C86.9854 275.283 87.1715 275.849 87.1715 276.619V281H86.1658V276.619C86.1658 276.136 86.0337 275.791 85.7695 275.584C85.5053 275.376 85.1942 275.273 84.8363 275.273C84.3761 275.273 84.0195 275.412 83.7667 275.69C83.5138 275.966 83.3874 276.315 83.3874 276.739V281H82.3647V276.517C82.3647 276.145 82.244 275.845 82.0025 275.618C81.761 275.388 81.4499 275.273 81.0692 275.273C80.8079 275.273 80.5636 275.342 80.3363 275.482C80.1119 275.621 79.93 275.814 79.7908 276.061C79.6545 276.305 79.5863 276.588 79.5863 276.909V281H78.5806ZM90.9364 281.153C90.5217 281.153 90.1452 281.075 89.8072 280.919C89.4691 280.76 89.2006 280.531 89.0018 280.233C88.8029 279.932 88.7035 279.568 88.7035 279.142C88.7035 278.767 88.7773 278.463 88.9251 278.23C89.0728 277.994 89.2702 277.81 89.5174 277.676C89.7646 277.543 90.0373 277.443 90.3356 277.378C90.6367 277.31 90.9393 277.256 91.2433 277.216C91.641 277.165 91.9634 277.126 92.2106 277.101C92.4606 277.072 92.6424 277.026 92.756 276.96C92.8725 276.895 92.9308 276.781 92.9308 276.619V276.585C92.9308 276.165 92.8157 275.838 92.5856 275.605C92.3583 275.372 92.0131 275.256 91.5501 275.256C91.07 275.256 90.6935 275.361 90.4208 275.571C90.1481 275.781 89.9563 276.006 89.8455 276.244L88.891 275.903C89.0614 275.506 89.2887 275.196 89.5728 274.974C89.8597 274.75 90.1722 274.594 90.5103 274.506C90.8512 274.415 91.1864 274.369 91.516 274.369C91.7262 274.369 91.9677 274.395 92.2404 274.446C92.516 274.494 92.7816 274.595 93.0373 274.749C93.2958 274.902 93.5103 275.134 93.6808 275.443C93.8512 275.753 93.9364 276.168 93.9364 276.688V281H92.9308V280.114H92.8796C92.8114 280.256 92.6978 280.408 92.5387 280.57C92.3796 280.732 92.168 280.869 91.9038 280.983C91.6396 281.097 91.3171 281.153 90.9364 281.153ZM91.0898 280.25C91.4876 280.25 91.8228 280.172 92.0955 280.016C92.3711 279.859 92.5785 279.658 92.7177 279.411C92.8597 279.163 92.9308 278.903 92.9308 278.631V277.71C92.8881 277.761 92.7944 277.808 92.6495 277.851C92.5075 277.891 92.3427 277.926 92.1552 277.957C91.9705 277.986 91.7901 278.011 91.614 278.034C91.4407 278.054 91.3001 278.071 91.1921 278.085C90.9308 278.119 90.6864 278.175 90.4592 278.251C90.2347 278.325 90.0529 278.437 89.9137 278.588C89.7773 278.736 89.7092 278.937 89.7092 279.193C89.7092 279.543 89.8384 279.807 90.0969 279.986C90.3583 280.162 90.6893 280.25 91.0898 280.25ZM96.7777 272.273V281H95.772V272.273H96.7777Z" fill="#111111"/>
<circle cx="42" cy="301" r="4" fill="#FF4236"/>
<path d="M59.8295 298.455C59.7784 298.023 59.571 297.688 59.2074 297.449C58.8438 297.21 58.3977 297.091 57.8693 297.091C57.483 297.091 57.1449 297.153 56.8551 297.278C56.5682 297.403 56.3438 297.575 56.1818 297.794C56.0227 298.013 55.9432 298.261 55.9432 298.54C55.9432 298.773 55.9986 298.973 56.1094 299.141C56.223 299.305 56.3679 299.443 56.544 299.554C56.7202 299.662 56.9048 299.751 57.098 299.822C57.2912 299.891 57.4688 299.946 57.6307 299.989L58.517 300.227C58.7443 300.287 58.9972 300.369 59.2756 300.474C59.5568 300.58 59.8253 300.723 60.081 300.905C60.3395 301.084 60.5526 301.314 60.7202 301.595C60.8878 301.876 60.9716 302.222 60.9716 302.631C60.9716 303.102 60.848 303.528 60.6009 303.909C60.3565 304.29 59.9986 304.592 59.527 304.817C59.0582 305.041 58.4886 305.153 57.8182 305.153C57.1932 305.153 56.652 305.053 56.1946 304.851C55.7401 304.649 55.3821 304.368 55.1207 304.007C54.8622 303.646 54.7159 303.227 54.6818 302.75H55.7727C55.8011 303.08 55.9119 303.352 56.1051 303.568C56.3011 303.781 56.5483 303.94 56.8466 304.045C57.1477 304.148 57.4716 304.199 57.8182 304.199C58.2216 304.199 58.5838 304.134 58.9048 304.003C59.2259 303.869 59.4801 303.685 59.6676 303.449C59.8551 303.21 59.9489 302.932 59.9489 302.614C59.9489 302.324 59.8679 302.088 59.706 301.906C59.544 301.724 59.331 301.577 59.0668 301.463C58.8026 301.349 58.517 301.25 58.2102 301.165L57.1364 300.858C56.4545 300.662 55.9148 300.382 55.517 300.018C55.1193 299.655 54.9205 299.179 54.9205 298.591C54.9205 298.102 55.0526 297.676 55.3168 297.312C55.5838 296.946 55.9418 296.662 56.3906 296.46C56.8423 296.256 57.3466 296.153 57.9034 296.153C58.4659 296.153 58.9659 296.254 59.4034 296.456C59.8409 296.655 60.1875 296.928 60.4432 297.274C60.7017 297.621 60.8381 298.014 60.8523 298.455H59.8295ZM65.3171 305.136C64.6864 305.136 64.1424 304.997 63.685 304.719C63.2305 304.438 62.8796 304.045 62.6325 303.543C62.3881 303.037 62.266 302.449 62.266 301.778C62.266 301.108 62.3881 300.517 62.6325 300.006C62.8796 299.491 63.2234 299.091 63.6637 298.804C64.1069 298.514 64.6239 298.369 65.2148 298.369C65.5558 298.369 65.8924 298.426 66.2248 298.54C66.5572 298.653 66.8597 298.838 67.1325 299.094C67.4052 299.347 67.6225 299.682 67.7844 300.099C67.9464 300.517 68.0273 301.031 68.0273 301.642V302.068H62.9819V301.199H67.0046C67.0046 300.83 66.9308 300.5 66.783 300.21C66.6381 299.92 66.4308 299.692 66.1609 299.524C65.8938 299.357 65.5785 299.273 65.2148 299.273C64.8143 299.273 64.4677 299.372 64.1751 299.571C63.8853 299.767 63.6623 300.023 63.506 300.338C63.3498 300.653 63.2717 300.991 63.2717 301.352V301.932C63.2717 302.426 63.3569 302.845 63.5273 303.189C63.7006 303.53 63.9407 303.79 64.2475 303.969C64.5543 304.145 64.9109 304.233 65.3171 304.233C65.5813 304.233 65.82 304.196 66.033 304.122C66.2489 304.045 66.435 303.932 66.5913 303.781C66.7475 303.628 66.8683 303.437 66.9535 303.21L67.9251 303.483C67.8228 303.812 67.6509 304.102 67.4094 304.352C67.168 304.599 66.8697 304.793 66.5146 304.932C66.1594 305.068 65.7603 305.136 65.3171 305.136ZM69.5572 305V298.455H70.5288V299.443H70.5969C70.7163 299.119 70.9322 298.857 71.2447 298.655C71.5572 298.453 71.9094 298.352 72.3015 298.352C72.3754 298.352 72.4677 298.354 72.5785 298.357C72.6893 298.359 72.7731 298.364 72.8299 298.369V299.392C72.7958 299.384 72.7177 299.371 72.5955 299.354C72.4762 299.334 72.3498 299.324 72.2163 299.324C71.8981 299.324 71.614 299.391 71.364 299.524C71.1168 299.655 70.9208 299.837 70.7759 300.07C70.6339 300.3 70.5629 300.562 70.5629 300.858V305H69.5572ZM74.022 305V298.455H75.0277V305H74.022ZM74.5334 297.364C74.3374 297.364 74.1683 297.297 74.0263 297.163C73.8871 297.03 73.8175 296.869 73.8175 296.682C73.8175 296.494 73.8871 296.334 74.0263 296.2C74.1683 296.067 74.3374 296 74.5334 296C74.7294 296 74.897 296.067 75.0362 296.2C75.1783 296.334 75.2493 296.494 75.2493 296.682C75.2493 296.869 75.1783 297.03 75.0362 297.163C74.897 297.297 74.7294 297.364 74.5334 297.364ZM79.5288 305.136C78.9379 305.136 78.4194 304.996 77.9734 304.714C77.5302 304.433 77.1836 304.04 76.9336 303.534C76.6864 303.028 76.5629 302.437 76.5629 301.761C76.5629 301.08 76.6864 300.484 76.9336 299.976C77.1836 299.467 77.5302 299.072 77.9734 298.791C78.4194 298.51 78.9379 298.369 79.5288 298.369C80.1197 298.369 80.6367 298.51 81.0799 298.791C81.5259 299.072 81.8725 299.467 82.1197 299.976C82.3697 300.484 82.4947 301.08 82.4947 301.761C82.4947 302.437 82.3697 303.028 82.1197 303.534C81.8725 304.04 81.5259 304.433 81.0799 304.714C80.6367 304.996 80.1197 305.136 79.5288 305.136ZM79.5288 304.233C79.9776 304.233 80.3469 304.118 80.6367 303.888C80.9265 303.658 81.141 303.355 81.2802 302.98C81.4194 302.605 81.489 302.199 81.489 301.761C81.489 301.324 81.4194 300.916 81.2802 300.538C81.141 300.161 80.9265 299.855 80.6367 299.622C80.3469 299.389 79.9776 299.273 79.5288 299.273C79.0799 299.273 78.7106 299.389 78.4208 299.622C78.131 299.855 77.9165 300.161 77.7773 300.538C77.6381 300.916 77.5685 301.324 77.5685 301.761C77.5685 302.199 77.6381 302.605 77.7773 302.98C77.9165 303.355 78.131 303.658 78.4208 303.888C78.7106 304.118 79.0799 304.233 79.5288 304.233ZM88.1548 302.324V298.455H89.1605V305H88.1548V303.892H88.0866C87.9332 304.224 87.6946 304.507 87.3707 304.74C87.0469 304.97 86.6378 305.085 86.1435 305.085C85.7344 305.085 85.3707 304.996 85.0526 304.817C84.7344 304.635 84.4844 304.362 84.3026 303.999C84.1207 303.632 84.0298 303.17 84.0298 302.614V298.455H85.0355V302.545C85.0355 303.023 85.169 303.403 85.4361 303.688C85.706 303.972 86.0497 304.114 86.4673 304.114C86.7173 304.114 86.9716 304.05 87.2301 303.922C87.4915 303.794 87.7102 303.598 87.8864 303.334C88.0653 303.07 88.1548 302.733 88.1548 302.324ZM95.6388 299.92L94.7354 300.176C94.6786 300.026 94.5948 299.879 94.484 299.737C94.3761 299.592 94.2283 299.473 94.0408 299.379C93.8533 299.286 93.6133 299.239 93.3207 299.239C92.9201 299.239 92.5863 299.331 92.3192 299.516C92.055 299.697 91.9229 299.929 91.9229 300.21C91.9229 300.46 92.0138 300.658 92.1957 300.803C92.3775 300.947 92.6616 301.068 93.0479 301.165L94.0195 301.403C94.6048 301.545 95.0408 301.763 95.3278 302.055C95.6147 302.345 95.7582 302.719 95.7582 303.176C95.7582 303.551 95.6502 303.886 95.4343 304.182C95.2212 304.477 94.9229 304.71 94.5394 304.881C94.1559 305.051 93.7099 305.136 93.2013 305.136C92.5337 305.136 91.9812 304.991 91.5437 304.702C91.1062 304.412 90.8292 303.989 90.7127 303.432L91.6673 303.193C91.7582 303.545 91.93 303.81 92.1829 303.986C92.4386 304.162 92.7724 304.25 93.1843 304.25C93.6531 304.25 94.0252 304.151 94.3008 303.952C94.5792 303.75 94.7184 303.509 94.7184 303.227C94.7184 303 94.6388 302.81 94.4798 302.656C94.3207 302.5 94.0763 302.384 93.7468 302.307L92.6559 302.051C92.0565 301.909 91.6161 301.689 91.3349 301.391C91.0565 301.089 90.9173 300.713 90.9173 300.261C90.9173 299.892 91.021 299.565 91.2283 299.281C91.4386 298.997 91.7241 298.774 92.0849 298.612C92.4485 298.45 92.8604 298.369 93.3207 298.369C93.9684 298.369 94.4769 298.511 94.8462 298.795C95.2184 299.08 95.4826 299.455 95.6388 299.92ZM101.141 305H100.033L103.238 296.273H104.329L107.533 305H106.425L103.817 297.653H103.749L101.141 305ZM101.55 301.591H106.016V302.528H101.55V301.591ZM111.193 298.455V299.307H107.801V298.455H111.193ZM108.789 296.886H109.795V303.125C109.795 303.409 109.836 303.622 109.919 303.764C110.004 303.903 110.112 303.997 110.243 304.045C110.376 304.091 110.517 304.114 110.664 304.114C110.775 304.114 110.866 304.108 110.937 304.097C111.008 304.082 111.065 304.071 111.108 304.062L111.312 304.966C111.244 304.991 111.149 305.017 111.027 305.043C110.904 305.071 110.75 305.085 110.562 305.085C110.278 305.085 110 305.024 109.727 304.902C109.457 304.78 109.233 304.594 109.054 304.344C108.877 304.094 108.789 303.778 108.789 303.398V296.886ZM115.552 298.455V299.307H112.16V298.455H115.552ZM113.149 296.886H114.154V303.125C114.154 303.409 114.196 303.622 114.278 303.764C114.363 303.903 114.471 303.997 114.602 304.045C114.735 304.091 114.876 304.114 115.024 304.114C115.135 304.114 115.225 304.108 115.297 304.097C115.368 304.082 115.424 304.071 115.467 304.062L115.672 304.966C115.603 304.991 115.508 305.017 115.386 305.043C115.264 305.071 115.109 305.085 114.922 305.085C114.637 305.085 114.359 305.024 114.086 304.902C113.816 304.78 113.592 304.594 113.413 304.344C113.237 304.094 113.149 303.778 113.149 303.398V296.886ZM119.739 305.136C119.108 305.136 118.564 304.997 118.107 304.719C117.652 304.438 117.301 304.045 117.054 303.543C116.81 303.037 116.688 302.449 116.688 301.778C116.688 301.108 116.81 300.517 117.054 300.006C117.301 299.491 117.645 299.091 118.086 298.804C118.529 298.514 119.046 298.369 119.637 298.369C119.978 298.369 120.314 298.426 120.647 298.54C120.979 298.653 121.282 298.838 121.554 299.094C121.827 299.347 122.044 299.682 122.206 300.099C122.368 300.517 122.449 301.031 122.449 301.642V302.068H117.404V301.199H121.426C121.426 300.83 121.353 300.5 121.205 300.21C121.06 299.92 120.853 299.692 120.583 299.524C120.316 299.357 120 299.273 119.637 299.273C119.236 299.273 118.89 299.372 118.597 299.571C118.307 299.767 118.084 300.023 117.928 300.338C117.772 300.653 117.694 300.991 117.694 301.352V301.932C117.694 302.426 117.779 302.845 117.949 303.189C118.123 303.53 118.363 303.79 118.669 303.969C118.976 304.145 119.333 304.233 119.739 304.233C120.003 304.233 120.242 304.196 120.455 304.122C120.671 304.045 120.857 303.932 121.013 303.781C121.169 303.628 121.29 303.437 121.375 303.21L122.347 303.483C122.245 303.812 122.073 304.102 121.831 304.352C121.59 304.599 121.292 304.793 120.936 304.932C120.581 305.068 120.182 305.136 119.739 305.136ZM124.985 301.062V305H123.979V298.455H124.951V299.477H125.036C125.189 299.145 125.422 298.878 125.735 298.676C126.047 298.472 126.451 298.369 126.945 298.369C127.388 298.369 127.776 298.46 128.108 298.642C128.441 298.821 128.699 299.094 128.884 299.46C129.069 299.824 129.161 300.284 129.161 300.841V305H128.155V300.909C128.155 300.395 128.022 299.994 127.755 299.707C127.488 299.418 127.121 299.273 126.655 299.273C126.334 299.273 126.047 299.342 125.794 299.482C125.544 299.621 125.347 299.824 125.202 300.091C125.057 300.358 124.985 300.682 124.985 301.062ZM133.845 298.455V299.307H130.453V298.455H133.845ZM131.442 296.886H132.447V303.125C132.447 303.409 132.489 303.622 132.571 303.764C132.656 303.903 132.764 303.997 132.895 304.045C133.028 304.091 133.169 304.114 133.317 304.114C133.428 304.114 133.518 304.108 133.589 304.097C133.661 304.082 133.717 304.071 133.76 304.062L133.964 304.966C133.896 304.991 133.801 305.017 133.679 305.043C133.557 305.071 133.402 305.085 133.214 305.085C132.93 305.085 132.652 305.024 132.379 304.902C132.109 304.78 131.885 304.594 131.706 304.344C131.53 304.094 131.442 303.778 131.442 303.398V296.886ZM135.358 305V298.455H136.364V305H135.358ZM135.869 297.364C135.673 297.364 135.504 297.297 135.362 297.163C135.223 297.03 135.153 296.869 135.153 296.682C135.153 296.494 135.223 296.334 135.362 296.2C135.504 296.067 135.673 296 135.869 296C136.065 296 136.233 296.067 136.372 296.2C136.514 296.334 136.585 296.494 136.585 296.682C136.585 296.869 136.514 297.03 136.372 297.163C136.233 297.297 136.065 297.364 135.869 297.364ZM140.865 305.136C140.274 305.136 139.755 304.996 139.309 304.714C138.866 304.433 138.52 304.04 138.27 303.534C138.022 303.028 137.899 302.437 137.899 301.761C137.899 301.08 138.022 300.484 138.27 299.976C138.52 299.467 138.866 299.072 139.309 298.791C139.755 298.51 140.274 298.369 140.865 298.369C141.456 298.369 141.973 298.51 142.416 298.791C142.862 299.072 143.208 299.467 143.456 299.976C143.706 300.484 143.831 301.08 143.831 301.761C143.831 302.437 143.706 303.028 143.456 303.534C143.208 304.04 142.862 304.433 142.416 304.714C141.973 304.996 141.456 305.136 140.865 305.136ZM140.865 304.233C141.314 304.233 141.683 304.118 141.973 303.888C142.262 303.658 142.477 303.355 142.616 302.98C142.755 302.605 142.825 302.199 142.825 301.761C142.825 301.324 142.755 300.916 142.616 300.538C142.477 300.161 142.262 299.855 141.973 299.622C141.683 299.389 141.314 299.273 140.865 299.273C140.416 299.273 140.047 299.389 139.757 299.622C139.467 299.855 139.252 300.161 139.113 300.538C138.974 300.916 138.904 301.324 138.904 301.761C138.904 302.199 138.974 302.605 139.113 302.98C139.252 303.355 139.467 303.658 139.757 303.888C140.047 304.118 140.416 304.233 140.865 304.233ZM146.371 301.062V305H145.366V298.455H146.337V299.477H146.423C146.576 299.145 146.809 298.878 147.121 298.676C147.434 298.472 147.837 298.369 148.332 298.369C148.775 298.369 149.163 298.46 149.495 298.642C149.827 298.821 150.086 299.094 150.271 299.46C150.455 299.824 150.548 300.284 150.548 300.841V305H149.542V300.909C149.542 300.395 149.408 299.994 149.141 299.707C148.874 299.418 148.508 299.273 148.042 299.273C147.721 299.273 147.434 299.342 147.181 299.482C146.931 299.621 146.734 299.824 146.589 300.091C146.444 300.358 146.371 300.682 146.371 301.062Z" fill="#111111"/>
<circle cx="204" cy="301" r="4" fill="#4080FF"/>
<path d="M221.83 298.455C221.778 298.023 221.571 297.688 221.207 297.449C220.844 297.21 220.398 297.091 219.869 297.091C219.483 297.091 219.145 297.153 218.855 297.278C218.568 297.403 218.344 297.575 218.182 297.794C218.023 298.013 217.943 298.261 217.943 298.54C217.943 298.773 217.999 298.973 218.109 299.141C218.223 299.305 218.368 299.443 218.544 299.554C218.72 299.662 218.905 299.751 219.098 299.822C219.291 299.891 219.469 299.946 219.631 299.989L220.517 300.227C220.744 300.287 220.997 300.369 221.276 300.474C221.557 300.58 221.825 300.723 222.081 300.905C222.339 301.084 222.553 301.314 222.72 301.595C222.888 301.876 222.972 302.222 222.972 302.631C222.972 303.102 222.848 303.528 222.601 303.909C222.357 304.29 221.999 304.592 221.527 304.817C221.058 305.041 220.489 305.153 219.818 305.153C219.193 305.153 218.652 305.053 218.195 304.851C217.74 304.649 217.382 304.368 217.121 304.007C216.862 303.646 216.716 303.227 216.682 302.75H217.773C217.801 303.08 217.912 303.352 218.105 303.568C218.301 303.781 218.548 303.94 218.847 304.045C219.148 304.148 219.472 304.199 219.818 304.199C220.222 304.199 220.584 304.134 220.905 304.003C221.226 303.869 221.48 303.685 221.668 303.449C221.855 303.21 221.949 302.932 221.949 302.614C221.949 302.324 221.868 302.088 221.706 301.906C221.544 301.724 221.331 301.577 221.067 301.463C220.803 301.349 220.517 301.25 220.21 301.165L219.136 300.858C218.455 300.662 217.915 300.382 217.517 300.018C217.119 299.655 216.92 299.179 216.92 298.591C216.92 298.102 217.053 297.676 217.317 297.312C217.584 296.946 217.942 296.662 218.391 296.46C218.842 296.256 219.347 296.153 219.903 296.153C220.466 296.153 220.966 296.254 221.403 296.456C221.841 296.655 222.188 296.928 222.443 297.274C222.702 297.621 222.838 298.014 222.852 298.455H221.83ZM226.499 305.153C226.084 305.153 225.708 305.075 225.37 304.919C225.032 304.76 224.763 304.531 224.564 304.233C224.365 303.932 224.266 303.568 224.266 303.142C224.266 302.767 224.34 302.463 224.488 302.23C224.635 301.994 224.833 301.81 225.08 301.676C225.327 301.543 225.6 301.443 225.898 301.378C226.199 301.31 226.502 301.256 226.806 301.216C227.203 301.165 227.526 301.126 227.773 301.101C228.023 301.072 228.205 301.026 228.319 300.96C228.435 300.895 228.493 300.781 228.493 300.619V300.585C228.493 300.165 228.378 299.838 228.148 299.605C227.921 299.372 227.576 299.256 227.113 299.256C226.632 299.256 226.256 299.361 225.983 299.571C225.711 299.781 225.519 300.006 225.408 300.244L224.453 299.903C224.624 299.506 224.851 299.196 225.135 298.974C225.422 298.75 225.735 298.594 226.073 298.506C226.414 298.415 226.749 298.369 227.078 298.369C227.289 298.369 227.53 298.395 227.803 298.446C228.078 298.494 228.344 298.595 228.6 298.749C228.858 298.902 229.073 299.134 229.243 299.443C229.414 299.753 229.499 300.168 229.499 300.688V305H228.493V304.114H228.442C228.374 304.256 228.26 304.408 228.101 304.57C227.942 304.732 227.73 304.869 227.466 304.983C227.202 305.097 226.88 305.153 226.499 305.153ZM226.652 304.25C227.05 304.25 227.385 304.172 227.658 304.016C227.934 303.859 228.141 303.658 228.28 303.411C228.422 303.163 228.493 302.903 228.493 302.631V301.71C228.451 301.761 228.357 301.808 228.212 301.851C228.07 301.891 227.905 301.926 227.718 301.957C227.533 301.986 227.353 302.011 227.176 302.034C227.003 302.054 226.863 302.071 226.755 302.085C226.493 302.119 226.249 302.175 226.022 302.251C225.797 302.325 225.615 302.437 225.476 302.588C225.34 302.736 225.272 302.937 225.272 303.193C225.272 303.543 225.401 303.807 225.659 303.986C225.921 304.162 226.252 304.25 226.652 304.25ZM234.181 298.455V299.307H230.789V298.455H234.181ZM231.778 296.886H232.783V303.125C232.783 303.409 232.825 303.622 232.907 303.764C232.992 303.903 233.1 303.997 233.231 304.045C233.364 304.091 233.505 304.114 233.653 304.114C233.763 304.114 233.854 304.108 233.925 304.097C233.996 304.082 234.053 304.071 234.096 304.062L234.3 304.966C234.232 304.991 234.137 305.017 234.015 305.043C233.893 305.071 233.738 305.085 233.55 305.085C233.266 305.085 232.988 305.024 232.715 304.902C232.445 304.78 232.221 304.594 232.042 304.344C231.866 304.094 231.778 303.778 231.778 303.398V296.886ZM239.819 302.324V298.455H240.825V305H239.819V303.892H239.751C239.597 304.224 239.359 304.507 239.035 304.74C238.711 304.97 238.302 305.085 237.808 305.085C237.398 305.085 237.035 304.996 236.717 304.817C236.398 304.635 236.148 304.362 235.967 303.999C235.785 303.632 235.694 303.17 235.694 302.614V298.455H236.7V302.545C236.7 303.023 236.833 303.403 237.1 303.688C237.37 303.972 237.714 304.114 238.131 304.114C238.381 304.114 238.636 304.05 238.894 303.922C239.156 303.794 239.374 303.598 239.55 303.334C239.729 303.07 239.819 302.733 239.819 302.324ZM242.667 305V298.455H243.638V299.443H243.706C243.826 299.119 244.042 298.857 244.354 298.655C244.667 298.453 245.019 298.352 245.411 298.352C245.485 298.352 245.577 298.354 245.688 298.357C245.799 298.359 245.882 298.364 245.939 298.369V299.392C245.905 299.384 245.827 299.371 245.705 299.354C245.586 299.334 245.459 299.324 245.326 299.324C245.007 299.324 244.723 299.391 244.473 299.524C244.226 299.655 244.03 299.837 243.885 300.07C243.743 300.3 243.672 300.562 243.672 300.858V305H242.667ZM249.058 305.153C248.643 305.153 248.266 305.075 247.928 304.919C247.59 304.76 247.322 304.531 247.123 304.233C246.924 303.932 246.825 303.568 246.825 303.142C246.825 302.767 246.898 302.463 247.046 302.23C247.194 301.994 247.391 301.81 247.638 301.676C247.886 301.543 248.158 301.443 248.457 301.378C248.758 301.31 249.06 301.256 249.364 301.216C249.762 301.165 250.085 301.126 250.332 301.101C250.582 301.072 250.763 301.026 250.877 300.96C250.994 300.895 251.052 300.781 251.052 300.619V300.585C251.052 300.165 250.937 299.838 250.707 299.605C250.479 299.372 250.134 299.256 249.671 299.256C249.191 299.256 248.815 299.361 248.542 299.571C248.269 299.781 248.077 300.006 247.967 300.244L247.012 299.903C247.183 299.506 247.41 299.196 247.694 298.974C247.981 298.75 248.293 298.594 248.631 298.506C248.972 298.415 249.308 298.369 249.637 298.369C249.847 298.369 250.089 298.395 250.362 298.446C250.637 298.494 250.903 298.595 251.158 298.749C251.417 298.902 251.631 299.134 251.802 299.443C251.972 299.753 252.058 300.168 252.058 300.688V305H251.052V304.114H251.001C250.933 304.256 250.819 304.408 250.66 304.57C250.501 304.732 250.289 304.869 250.025 304.983C249.761 305.097 249.438 305.153 249.058 305.153ZM249.211 304.25C249.609 304.25 249.944 304.172 250.217 304.016C250.492 303.859 250.7 303.658 250.839 303.411C250.981 303.163 251.052 302.903 251.052 302.631V301.71C251.009 301.761 250.915 301.808 250.771 301.851C250.629 301.891 250.464 301.926 250.276 301.957C250.092 301.986 249.911 302.011 249.735 302.034C249.562 302.054 249.421 302.071 249.313 302.085C249.052 302.119 248.808 302.175 248.58 302.251C248.356 302.325 248.174 302.437 248.035 302.588C247.898 302.736 247.83 302.937 247.83 303.193C247.83 303.543 247.96 303.807 248.218 303.986C248.479 304.162 248.81 304.25 249.211 304.25ZM256.74 298.455V299.307H253.348V298.455H256.74ZM254.336 296.886H255.342V303.125C255.342 303.409 255.383 303.622 255.466 303.764C255.551 303.903 255.659 303.997 255.789 304.045C255.923 304.091 256.064 304.114 256.211 304.114C256.322 304.114 256.413 304.108 256.484 304.097C256.555 304.082 256.612 304.071 256.654 304.062L256.859 304.966C256.791 304.991 256.696 305.017 256.574 305.043C256.451 305.071 256.297 305.085 256.109 305.085C255.825 305.085 255.547 305.024 255.274 304.902C255.004 304.78 254.779 304.594 254.6 304.344C254.424 304.094 254.336 303.778 254.336 303.398V296.886ZM260.926 305.136C260.296 305.136 259.752 304.997 259.294 304.719C258.84 304.438 258.489 304.045 258.242 303.543C257.998 303.037 257.875 302.449 257.875 301.778C257.875 301.108 257.998 300.517 258.242 300.006C258.489 299.491 258.833 299.091 259.273 298.804C259.716 298.514 260.233 298.369 260.824 298.369C261.165 298.369 261.502 298.426 261.834 298.54C262.167 298.653 262.469 298.838 262.742 299.094C263.015 299.347 263.232 299.682 263.394 300.099C263.556 300.517 263.637 301.031 263.637 301.642V302.068H258.591V301.199H262.614C262.614 300.83 262.54 300.5 262.392 300.21C262.248 299.92 262.04 299.692 261.77 299.524C261.503 299.357 261.188 299.273 260.824 299.273C260.424 299.273 260.077 299.372 259.784 299.571C259.495 299.767 259.272 300.023 259.115 300.338C258.959 300.653 258.881 300.991 258.881 301.352V301.932C258.881 302.426 258.966 302.845 259.137 303.189C259.31 303.53 259.55 303.79 259.857 303.969C260.164 304.145 260.52 304.233 260.926 304.233C261.191 304.233 261.429 304.196 261.642 304.122C261.858 304.045 262.044 303.932 262.201 303.781C262.357 303.628 262.478 303.437 262.563 303.21L263.534 303.483C263.432 303.812 263.26 304.102 263.019 304.352C262.777 304.599 262.479 304.793 262.124 304.932C261.769 305.068 261.37 305.136 260.926 305.136ZM267.638 305.136C267.093 305.136 266.611 304.999 266.194 304.723C265.776 304.445 265.449 304.053 265.213 303.547C264.978 303.038 264.86 302.438 264.86 301.744C264.86 301.057 264.978 300.46 265.213 299.955C265.449 299.449 265.777 299.058 266.198 298.783C266.618 298.507 267.104 298.369 267.655 298.369C268.081 298.369 268.418 298.44 268.665 298.582C268.915 298.722 269.105 298.881 269.236 299.06C269.37 299.236 269.473 299.381 269.547 299.494H269.632V296.273H270.638V305H269.667V303.994H269.547C269.473 304.114 269.368 304.264 269.232 304.446C269.096 304.625 268.901 304.786 268.648 304.928C268.395 305.067 268.059 305.136 267.638 305.136ZM267.775 304.233C268.178 304.233 268.519 304.128 268.797 303.918C269.076 303.705 269.287 303.411 269.432 303.036C269.577 302.658 269.65 302.222 269.65 301.727C269.65 301.239 269.578 300.811 269.436 300.445C269.294 300.075 269.084 299.788 268.806 299.584C268.527 299.376 268.184 299.273 267.775 299.273C267.348 299.273 266.993 299.382 266.709 299.601C266.428 299.817 266.216 300.111 266.074 300.483C265.935 300.852 265.865 301.267 265.865 301.727C265.865 302.193 265.936 302.616 266.078 302.997C266.223 303.375 266.436 303.676 266.718 303.901C267.002 304.122 267.354 304.233 267.775 304.233ZM275.705 295.864L272.892 306.312H271.972L274.784 295.864H275.705ZM277.033 305V296.273H282.266V297.21H278.09V300.159H281.874V301.097H278.09V305H277.033ZM287.655 302.324V298.455H288.661V305H287.655V303.892H287.587C287.433 304.224 287.195 304.507 286.871 304.74C286.547 304.97 286.138 305.085 285.643 305.085C285.234 305.085 284.871 304.996 284.553 304.817C284.234 304.635 283.984 304.362 283.803 303.999C283.621 303.632 283.53 303.17 283.53 302.614V298.455H284.536V302.545C284.536 303.023 284.669 303.403 284.936 303.688C285.206 303.972 285.55 304.114 285.967 304.114C286.217 304.114 286.472 304.05 286.73 303.922C286.991 303.794 287.21 303.598 287.386 303.334C287.565 303.07 287.655 302.733 287.655 302.324ZM291.508 296.273V305H290.502V296.273H291.508ZM294.356 296.273V305H293.35V296.273H294.356Z" fill="#111111"/>
</svg>
