<svg width="22" height="20" viewBox="0 0 22 20" fill="none" xmlns="http://www.w3.org/2000/svg">
<path d="M18 19.4776H4C3.73478 19.4776 3.48043 19.3769 3.29289 19.1978C3.10536 19.0186 3 18.7757 3 18.5223V9.92533H0L10.327 0.957684C10.5111 0.797663 10.7511 0.708984 11 0.708984C11.2489 0.708984 11.4889 0.797663 11.673 0.957684L22 9.92533H19V18.5223C19 18.7757 18.8946 19.0186 18.7071 19.1978C18.5196 19.3769 18.2652 19.4776 18 19.4776ZM12 17.5671H17V8.16485L11 2.95506L5 8.16485V17.5671H10V11.8358H12V17.5671Z" fill="#636975"/>
</svg>
