<svg width="19" height="22" viewBox="0 0 19 22" fill="none" xmlns="http://www.w3.org/2000/svg">
<path d="M9.5 3.10046L4.55 8.05046C3.57111 9.02946 2.90449 10.2767 2.63445 11.6346C2.36442 12.9924 2.50308 14.3999 3.03292 15.6789C3.56275 16.9579 4.45996 18.0512 5.61109 18.8203C6.76222 19.5894 8.11557 20 9.5 20C10.8844 20 12.2378 19.5894 13.3889 18.8203C14.54 18.0512 15.4373 16.9579 15.9671 15.6789C16.4969 14.3999 16.6356 12.9924 16.3656 11.6346C16.0955 10.2767 15.4289 9.02946 14.45 8.05046L9.5 3.10046ZM9.5 0.272461L15.864 6.63646C17.1227 7.89514 17.9798 9.49879 18.3271 11.2446C18.6743 12.9904 18.4961 14.8 17.8149 16.4446C17.1337 18.0891 15.9802 19.4947 14.5001 20.4836C13.0201 21.4725 11.28 22.0004 9.5 22.0004C7.71998 22.0004 5.97992 21.4725 4.49988 20.4836C3.01984 19.4947 1.86629 18.0891 1.1851 16.4446C0.503907 14.8 0.32567 12.9904 0.672928 11.2446C1.02019 9.49879 1.87734 7.89514 3.136 6.63646L9.5 0.272461Z" fill="#111111"/>
</svg>
