<svg width="14" height="15" viewBox="0 0 14 15" fill="none" xmlns="http://www.w3.org/2000/svg">
<g clip-path="url(#clip0_2095_2301)">
<path d="M12.8337 12.666H1.16699V11.4993H1.75033V7.4341C1.75033 4.52443 4.10116 2.16602 7.00033 2.16602C9.89949 2.16602 12.2503 4.52443 12.2503 7.4341V11.4993H12.8337V12.666ZM2.91699 11.4993H11.0837V7.4341C11.0837 5.16902 9.25549 3.33268 7.00033 3.33268C4.74516 3.33268 2.91699 5.16902 2.91699 7.4341V11.4993ZM5.54199 13.2493H8.45866C8.45866 13.6361 8.30501 14.0071 8.03152 14.2805C7.75803 14.554 7.3871 14.7077 7.00033 14.7077C6.61355 14.7077 6.24262 14.554 5.96913 14.2805C5.69564 14.0071 5.54199 13.6361 5.54199 13.2493Z" fill="#111111"/>
</g>
<circle cx="10.5" cy="2.5" r="2.5" fill="#FF0000"/>
<defs>
<clipPath id="clip0_2095_2301">
<rect width="14" height="14" fill="white" transform="translate(0 1)"/>
</clipPath>
</defs>
</svg>
