<svg width="23" height="21" viewBox="0 0 23 21" fill="none" xmlns="http://www.w3.org/2000/svg">
<path d="M15.4999 16V14H16.4999C17.121 13.9997 17.7335 13.8547 18.2889 13.5766C18.8442 13.2984 19.3272 12.8948 19.6995 12.3976C20.0718 11.9005 20.3232 11.3234 20.4338 10.7123C20.5444 10.1011 20.5111 9.47254 20.3367 8.87644C20.1622 8.28034 19.8513 7.73306 19.4286 7.27795C19.006 6.82284 18.4831 6.47242 17.9015 6.25444C17.3199 6.03645 16.6956 5.95691 16.0779 6.02209C15.4602 6.08728 14.8662 6.29541 14.3429 6.63C14.0949 5.57362 13.5651 4.60426 12.8099 3.82513C12.0546 3.046 11.1022 2.48627 10.0541 2.20552C9.00592 1.92478 7.90126 1.93353 6.85769 2.23085C5.81412 2.52817 4.87071 3.10293 4.12791 3.89392C3.3851 4.68492 2.87071 5.66256 2.6395 6.72273C2.40828 7.78291 2.4689 8.88595 2.8149 9.9144C3.1609 10.9429 3.77932 11.8582 4.60433 12.5631C5.42934 13.2679 6.43005 13.7358 7.49991 13.917V15.939C5.48102 15.6841 3.6351 14.6696 2.33779 13.1018C1.04048 11.5341 0.38927 9.53093 0.516688 7.50001C0.644107 5.46909 1.54058 3.56303 3.02366 2.16971C4.50675 0.776396 6.465 0.000528289 8.49991 7.49307e-07C9.92161 -0.000614564 11.3178 0.377741 12.5446 1.0961C13.7715 1.81447 14.7847 2.84687 15.4799 4.087C16.2988 3.94602 17.138 3.97665 17.9444 4.17696C18.7508 4.37727 19.5068 4.74289 20.1645 5.25065C20.8222 5.75842 21.3673 6.39726 21.7652 7.1267C22.1631 7.85613 22.4052 8.66027 22.4761 9.48815C22.547 10.316 22.4451 11.1496 22.177 11.9361C21.9089 12.7225 21.4804 13.4447 20.9185 14.0569C20.3567 14.6691 19.6739 15.1579 18.9132 15.4924C18.1526 15.8269 17.3308 15.9997 16.4999 16H15.4999ZM9.73191 16.732L11.4999 14.964L13.2679 16.732C13.6175 17.0817 13.8555 17.5271 13.9519 18.0121C14.0483 18.497 13.9988 18.9996 13.8096 19.4564C13.6203 19.9132 13.2999 20.3036 12.8888 20.5783C12.4777 20.8529 11.9943 20.9995 11.4999 20.9995C11.0055 20.9995 10.5222 20.8529 10.1111 20.5783C9.69995 20.3036 9.37952 19.9132 9.19028 19.4564C9.00104 18.9996 8.95149 18.497 9.0479 18.0121C9.14431 17.5271 9.38235 17.0817 9.73191 16.732Z" fill="#111111"/>
</svg>
