<svg width="80" height="80" viewBox="0 0 80 80" fill="none" xmlns="http://www.w3.org/2000/svg">
<g clip-path="url(#clip0_2122_3763)">
<g opacity="0.5">
<path d="M40 80C62.0914 80 80 62.0914 80 40C80 17.9086 62.0914 0 40 0C17.9086 0 0 17.9086 0 40C0 62.0914 17.9086 80 40 80Z" fill="#F6F5F5"/>
</g>
<path d="M40.0783 78.9008C61.7038 78.9008 79.2348 61.3698 79.2348 39.7443C79.2348 18.1188 61.7038 0.587891 40.0783 0.587891C18.4528 0.587891 0.921875 18.1188 0.921875 39.7443C0.921875 61.3698 18.4528 78.9008 40.0783 78.9008Z" fill="#F6F5F5"/>
<path d="M40.1147 79.0552C47.7659 79.0677 55.2515 76.8275 61.6379 72.614C60.195 64.7286 54.7038 64.2793 54.7038 64.2793H24.423C24.423 64.2793 19.2414 64.7045 17.623 71.9584C24.2075 76.59 32.0645 79.0691 40.1147 79.0552Z" fill="#37BD6B"/>
<path d="M39.6985 57.819C50.1366 57.819 58.5983 49.3573 58.5983 38.9192C58.5983 28.4812 50.1366 20.0195 39.6985 20.0195C29.2605 20.0195 20.7988 28.4812 20.7988 38.9192C20.7988 49.3573 29.2605 57.819 39.6985 57.819Z" fill="#636975"/>
<path opacity="0.1" d="M33.5986 54.6621H45.7087V64.3504C45.7087 65.9559 45.071 67.4956 43.936 68.6311C42.801 69.7666 41.2614 70.4048 39.6559 70.4054C38.0501 70.4054 36.5099 69.7674 35.3744 68.6319C34.2389 67.4964 33.6009 65.9563 33.6009 64.3504V54.6621H33.5986Z" fill="#111111"/>
<path d="M33.9832 54.2129H45.3299C45.4318 54.2129 45.5294 54.2533 45.6014 54.3253C45.6734 54.3974 45.7139 54.495 45.7139 54.5968V63.9011C45.714 64.6966 45.5575 65.4843 45.2531 66.2192C44.9487 66.9541 44.5025 67.6218 43.94 68.1842C43.3775 68.7466 42.7097 69.1927 41.9747 69.4969C41.2397 69.8012 40.452 69.9576 39.6566 69.9573C38.0507 69.9573 36.5106 69.3194 35.375 68.1838C34.2395 67.0483 33.6016 65.5082 33.6016 63.9023V54.5968C33.6016 54.4954 33.6417 54.3981 33.7132 54.3262C33.7847 54.2542 33.8818 54.2135 33.9832 54.2129Z" fill="#FDB797"/>
<path opacity="0.1" d="M33.6211 59.2341C37.524 60.6923 41.8202 60.704 45.7311 59.2673V57.7773H33.6211V59.2341Z" fill="#111111"/>
<path d="M39.699 60.0445C49.2856 60.0445 57.0572 52.2729 57.0572 42.6863C57.0572 33.0996 49.2856 25.3281 39.699 25.3281C30.1123 25.3281 22.3408 33.0996 22.3408 42.6863C22.3408 52.2729 30.1123 60.0445 39.699 60.0445Z" fill="#FDB797"/>
<path opacity="0.1" d="M27.334 26.8977C27.334 26.8977 34.6497 41.747 55.2858 33.1235L50.4813 25.5899L41.9644 22.5332L27.334 26.8977Z" fill="#111111"/>
<path d="M27.334 26.6793C27.334 26.6793 34.6497 41.5285 55.2858 32.9028L50.4813 25.3692L41.9644 22.3125L27.334 26.6793Z" fill="#636975"/>
<path d="M27.2696 25.6735C27.7629 24.1466 28.6154 22.7603 29.7556 21.6311C33.1699 18.2558 38.7676 17.544 41.6386 13.6953C42.3263 14.7635 41.7945 16.4059 40.6071 16.8644C43.3578 16.846 46.5452 16.6053 48.1005 14.3429C48.4849 15.2377 48.6074 16.2232 48.4538 17.1849C48.3003 18.1466 47.8769 19.045 47.2329 19.7755C49.6707 19.8902 52.2759 21.5406 52.4295 23.9761C52.5349 25.599 51.5126 27.1349 50.1842 28.0655C48.8558 28.9962 47.2375 29.4237 45.6501 29.7732C41.0152 30.7967 24.245 35.0798 27.2696 25.6735Z" fill="#636975"/>
<path d="M22.3336 45.6987C23.2255 45.6987 23.9485 44.343 23.9485 42.6707C23.9485 40.9983 23.2255 39.6426 22.3336 39.6426C21.4418 39.6426 20.7188 40.9983 20.7188 42.6707C20.7188 44.343 21.4418 45.6987 22.3336 45.6987Z" fill="#FDB797"/>
<path d="M57.0544 45.6987C57.9462 45.6987 58.6693 44.343 58.6693 42.6707C58.6693 40.9983 57.9462 39.6426 57.0544 39.6426C56.1625 39.6426 55.4395 40.9983 55.4395 42.6707C55.4395 44.343 56.1625 45.6987 57.0544 45.6987Z" fill="#FDB797"/>
</g>
<defs>
<clipPath id="clip0_2122_3763">
<rect width="80" height="80" fill="white"/>
</clipPath>
</defs>
</svg>
