<svg width="48" height="48" viewBox="0 0 48 48" fill="none" xmlns="http://www.w3.org/2000/svg">
<circle opacity="0.12" cx="24" cy="24" r="24" fill="#FF0000"/>
<g clip-path="url(#clip0_2112_2796)">
<path d="M17 34C16.7348 34 16.4804 33.8946 16.2929 33.7071C16.1054 33.5196 16 33.2652 16 33V15C16 14.7348 16.1054 14.4804 16.2929 14.2929C16.4804 14.1054 16.7348 14 17 14H31C31.2652 14 31.5196 14.1054 31.7071 14.2929C31.8946 14.4804 32 14.7348 32 15V18H30V16H18V32H30V30H32V33C32 33.2652 31.8946 33.5196 31.7071 33.7071C31.5196 33.8946 31.2652 34 31 34H17ZM30 28V25H23V23H30V20L35 24L30 28Z" fill="#FF0000"/>
</g>
<defs>
<clipPath id="clip0_2112_2796">
<rect width="24" height="24" fill="white" transform="translate(12 12)"/>
</clipPath>
</defs>
</svg>
