<svg width="48" height="48" viewBox="0 0 48 48" fill="none" xmlns="http://www.w3.org/2000/svg">
<circle opacity="0.12" cx="24" cy="24" r="24" fill="#37BD6B"/>
<g clip-path="url(#clip0_2112_2785)">
<path d="M16 34C16 31.8783 16.8429 29.8434 18.3431 28.3431C19.8434 26.8429 21.8783 26 24 26C26.1217 26 28.1566 26.8429 29.6569 28.3431C31.1571 29.8434 32 31.8783 32 34H30C30 32.4087 29.3679 30.8826 28.2426 29.7574C27.1174 28.6321 25.5913 28 24 28C22.4087 28 20.8826 28.6321 19.7574 29.7574C18.6321 30.8826 18 32.4087 18 34H16ZM24 25C20.685 25 18 22.315 18 19C18 15.685 20.685 13 24 13C27.315 13 30 15.685 30 19C30 22.315 27.315 25 24 25ZM24 23C26.21 23 28 21.21 28 19C28 16.79 26.21 15 24 15C21.79 15 20 16.79 20 19C20 21.21 21.79 23 24 23Z" fill="#37BD6B"/>
</g>
<defs>
<clipPath id="clip0_2112_2785">
<rect width="24" height="24" fill="white" transform="translate(12 12)"/>
</clipPath>
</defs>
</svg>
