<svg width="20" height="22" viewBox="0 0 20 22" fill="none" xmlns="http://www.w3.org/2000/svg">
<path d="M1.3403 15.9998C0.917575 15.2688 0.58897 14.4873 0.362305 13.6738C0.855612 13.4229 1.2699 13.0404 1.55933 12.5687C1.84877 12.097 2.00207 11.5544 2.00228 11.0009C2.00248 10.4475 1.84959 9.90477 1.56051 9.43282C1.27143 8.96088 0.857424 8.57809 0.364305 8.32682C0.816341 6.69231 1.67703 5.19977 2.8653 3.98982C3.3294 4.29155 3.86792 4.45898 4.42128 4.4736C4.97464 4.48822 5.52126 4.34945 6.00063 4.07265C6.48001 3.79586 6.87346 3.39182 7.13743 2.90526C7.4014 2.41871 7.52561 1.8686 7.4963 1.31582C9.13841 0.891445 10.8615 0.892133 12.5033 1.31782C12.4743 1.87059 12.5987 2.42061 12.8629 2.90703C13.1271 3.39345 13.5207 3.7973 14.0001 4.07388C14.4796 4.35047 15.0262 4.48901 15.5796 4.47417C16.1329 4.45934 16.6713 4.2917 17.1353 3.98982C17.7143 4.57982 18.2283 5.25082 18.6603 5.99982C19.0933 6.74882 19.4173 7.52982 19.6383 8.32582C19.145 8.57672 18.7307 8.9592 18.4413 9.43093C18.1518 9.90266 17.9985 10.4453 17.9983 10.9987C17.9981 11.5522 18.151 12.0949 18.4401 12.5668C18.7292 13.0388 19.1432 13.4216 19.6363 13.6728C19.1843 15.3073 18.3236 16.7999 17.1353 18.0098C16.6712 17.7081 16.1327 17.5407 15.5793 17.526C15.026 17.5114 14.4794 17.6502 14 17.927C13.5206 18.2038 13.1272 18.6078 12.8632 19.0944C12.5992 19.5809 12.475 20.131 12.5043 20.6838C10.8622 21.1082 9.13907 21.1075 7.4973 20.6818C7.52635 20.1291 7.4019 19.579 7.13773 19.0926C6.87355 18.6062 6.47995 18.2023 6.00048 17.9258C5.52101 17.6492 4.97436 17.5106 4.42103 17.5255C3.8677 17.5403 3.32927 17.7079 2.8653 18.0098C2.2743 17.4068 1.7619 16.7314 1.3403 15.9998ZM7.0003 16.1958C8.06593 16.8105 8.86715 17.7968 9.25031 18.9658C9.7493 19.0128 10.2503 19.0138 10.7493 18.9668C11.1327 17.7977 11.9343 16.8113 13.0003 16.1968C14.0655 15.5805 15.3208 15.3793 16.5253 15.6318C16.8153 15.2238 17.0653 14.7888 17.2733 14.3338C16.4527 13.4173 15.9994 12.23 16.0003 10.9998C16.0003 9.73982 16.4703 8.56282 17.2733 7.66582C17.0638 7.21097 16.8128 6.77646 16.5233 6.36782C15.3196 6.62013 14.0651 6.4193 13.0003 5.80382C11.9347 5.18919 11.1335 4.20281 10.7503 3.03382C10.2513 2.98682 9.7503 2.98582 9.2513 3.03282C8.8679 4.20197 8.06631 5.18838 7.0003 5.80282C5.93509 6.41914 4.67978 6.62034 3.4753 6.36782C3.18587 6.77611 2.93544 7.21069 2.7273 7.66582C3.54788 8.58238 4.00119 9.76961 4.0003 10.9998C4.0003 12.2598 3.5303 13.4368 2.7273 14.3338C2.93678 14.7887 3.18784 15.2232 3.4773 15.6318C4.68102 15.3795 5.93551 15.5803 7.0003 16.1958ZM10.0003 13.9998C9.20466 13.9998 8.44159 13.6838 7.87898 13.1211C7.31637 12.5585 7.0003 11.7955 7.0003 10.9998C7.0003 10.2042 7.31637 9.44111 7.87898 8.8785C8.44159 8.31589 9.20466 7.99982 10.0003 7.99982C10.796 7.99982 11.559 8.31589 12.1216 8.8785C12.6842 9.44111 13.0003 10.2042 13.0003 10.9998C13.0003 11.7955 12.6842 12.5585 12.1216 13.1211C11.559 13.6838 10.796 13.9998 10.0003 13.9998ZM10.0003 11.9998C10.2655 11.9998 10.5199 11.8945 10.7074 11.7069C10.8949 11.5194 11.0003 11.265 11.0003 10.9998C11.0003 10.7346 10.8949 10.4803 10.7074 10.2927C10.5199 10.1052 10.2655 9.99982 10.0003 9.99982C9.73509 9.99982 9.48073 10.1052 9.2932 10.2927C9.10566 10.4803 9.00031 10.7346 9.00031 10.9998C9.00031 11.265 9.10566 11.5194 9.2932 11.7069C9.48073 11.8945 9.73509 11.9998 10.0003 11.9998Z" fill="#636975"/>
</svg>
