<svg width="15" height="22" viewBox="0 0 15 22" fill="none" xmlns="http://www.w3.org/2000/svg">
<path d="M3.5 4C3.5 2.93913 3.92143 1.92172 4.67157 1.17157C5.42172 0.421427 6.43913 0 7.5 0C8.56087 0 9.57828 0.421427 10.3284 1.17157C11.0786 1.92172 11.5 2.93913 11.5 4V9.255C12.723 10.1066 13.6423 11.3262 14.1241 12.7365C14.6059 14.1467 14.625 15.6739 14.1788 17.0958C13.7325 18.5176 12.8441 19.76 11.6429 20.642C10.4416 21.524 8.99026 21.9996 7.5 21.9996C6.00974 21.9996 4.55837 21.524 3.35714 20.642C2.1559 19.76 1.2675 18.5176 0.82123 17.0958C0.374962 15.6739 0.394123 14.1467 0.875923 12.7365C1.35772 11.3262 2.27702 10.1066 3.5 9.255V4ZM4.644 10.895C3.77017 11.5031 3.11325 12.3742 2.76885 13.3816C2.42446 14.3889 2.41058 15.4799 2.72924 16.4957C3.0479 17.5115 3.68245 18.399 4.54053 19.0291C5.39861 19.6593 6.43541 19.9991 7.5 19.9991C8.56459 19.9991 9.60139 19.6593 10.4595 19.0291C11.3175 18.399 11.9521 17.5115 12.2708 16.4957C12.5894 15.4799 12.5755 14.3889 12.2311 13.3816C11.8868 12.3742 11.2298 11.5031 10.356 10.895L9.5 10.298V4C9.5 3.46957 9.28929 2.96086 8.91421 2.58579C8.53914 2.21071 8.03043 2 7.5 2C6.96957 2 6.46086 2.21071 6.08579 2.58579C5.71071 2.96086 5.5 3.46957 5.5 4V10.298L4.644 10.895ZM6.5 11.126V4H8.5V11.126C9.44049 11.3717 10.2594 11.9514 10.8038 12.7567C11.3482 13.562 11.5809 14.5379 11.4584 15.5022C11.336 16.4665 10.8667 17.3533 10.1383 17.997C9.40985 18.6406 8.47206 18.9972 7.5 19C6.52573 19.001 5.58461 18.6463 4.85327 18.0026C4.12194 17.3589 3.65067 16.4705 3.52792 15.504C3.40517 14.5375 3.63939 13.5594 4.18661 12.7533C4.73383 11.9472 5.55642 11.3686 6.5 11.126ZM7.5 17C8.03043 17 8.53914 16.7893 8.91421 16.4142C9.28929 16.0391 9.5 15.5304 9.5 15C9.5 14.4696 9.28929 13.9609 8.91421 13.5858C8.53914 13.2107 8.03043 13 7.5 13C6.96957 13 6.46086 13.2107 6.08579 13.5858C5.71071 13.9609 5.5 14.4696 5.5 15C5.5 15.5304 5.71071 16.0391 6.08579 16.4142C6.46086 16.7893 6.96957 17 7.5 17Z" fill="#111111"/>
</svg>
