<svg width="21" height="20" viewBox="0 0 21 20" fill="none" xmlns="http://www.w3.org/2000/svg">
<path d="M9 14.9998H2.5V12.9998H9C9.63875 13 10.2653 13.175 10.8116 13.5059C11.358 13.8367 11.8035 14.3108 12.0997 14.8767C12.3959 15.4426 12.5316 16.0788 12.492 16.7163C12.4525 17.3539 12.2393 17.9684 11.8755 18.4934C11.5116 19.0184 11.0111 19.4338 10.428 19.6947C9.84493 19.9555 9.2016 20.0518 8.56772 19.9731C7.93383 19.8945 7.33356 19.6438 6.83194 19.2484C6.33032 18.853 5.94647 18.3278 5.722 17.7298L7.595 17.0268C7.69118 17.2831 7.85566 17.5082 8.07063 17.6777C8.28559 17.8472 8.54285 17.9546 8.81451 17.9883C9.08618 18.0221 9.36189 17.9808 9.61179 17.8691C9.86169 17.7573 10.0762 17.5793 10.2322 17.3543C10.3881 17.1293 10.4795 16.8659 10.4965 16.5927C10.5135 16.3195 10.4553 16.0468 10.3284 15.8043C10.2015 15.5617 10.0106 15.3585 9.77641 15.2167C9.54225 15.0749 9.27375 14.9999 9 14.9998ZM3.5 8.99978H17C17.6387 9.00001 18.2653 9.17503 18.8116 9.50588C19.358 9.83673 19.8035 10.3108 20.0997 10.8767C20.3959 11.4426 20.5316 12.0788 20.492 12.7163C20.4525 13.3539 20.2393 13.9684 19.8755 14.4934C19.5116 15.0184 19.0111 15.4338 18.428 15.6947C17.8449 15.9555 17.2016 16.0518 16.5677 15.9731C15.9338 15.8945 15.3336 15.6438 14.8319 15.2484C14.3303 14.853 13.9465 14.3278 13.722 13.7298L15.595 13.0268C15.6912 13.2831 15.8557 13.5082 16.0706 13.6777C16.2856 13.8472 16.5428 13.9546 16.8145 13.9883C17.0862 14.0221 17.3619 13.9808 17.6118 13.8691C17.8617 13.7573 18.0762 13.5793 18.2322 13.3543C18.3881 13.1293 18.4795 12.8659 18.4965 12.5927C18.5135 12.3195 18.4553 12.0468 18.3284 11.8043C18.2015 11.5617 18.0106 11.3585 17.7764 11.2167C17.5423 11.0749 17.2738 10.9999 17 10.9998H3.5C2.70435 10.9998 1.94129 10.6837 1.37868 10.1211C0.816071 9.55849 0.5 8.79543 0.5 7.99978C0.5 7.20413 0.816071 6.44107 1.37868 5.87846C1.94129 5.31585 2.70435 4.99978 3.5 4.99978H12C12.2738 4.99967 12.5423 4.92464 12.7764 4.78283C13.0106 4.64102 13.2015 4.43784 13.3284 4.19529C13.4553 3.95274 13.5135 3.68009 13.4965 3.40686C13.4795 3.13364 13.3881 2.87026 13.2322 2.64527C13.0762 2.42028 12.8617 2.24226 12.6118 2.13049C12.3619 2.01873 12.0862 1.97748 11.8145 2.01122C11.5428 2.04496 11.2856 2.15239 11.0706 2.32189C10.8557 2.49139 10.6912 2.71648 10.595 2.97278L8.722 2.27078C9.01047 1.50359 9.55898 0.861922 10.2719 0.457592C10.9849 0.0532613 11.8171 -0.0881029 12.6236 0.0581307C13.4301 0.204364 14.1597 0.628925 14.6853 1.25784C15.211 1.88675 15.4993 2.68015 15.5 3.49978C15.5 4.42804 15.1313 5.31828 14.4749 5.97466C13.8185 6.63103 12.9283 6.99978 12 6.99978H3.5C3.23478 6.99978 2.98043 7.10514 2.79289 7.29268C2.60536 7.48021 2.5 7.73457 2.5 7.99978C2.5 8.265 2.60536 8.51935 2.79289 8.70689C2.98043 8.89442 3.23478 8.99978 3.5 8.99978Z" fill="#111111"/>
</svg>
